<svg width="48" height="40" viewBox="0 0 48 40" fill="none" xmlns="http://www.w3.org/2000/svg">
<rect width="48" height="40" rx="8" fill="#6F6FC8"/>
<path d="M28 17.3333L34.0707 14.2987C34.2739 14.1971 34.4997 14.1492 34.7267 14.1594C34.9536 14.1696 35.1742 14.2377 35.3675 14.3571C35.5608 14.4765 35.7203 14.6433 35.831 14.8417C35.9417 15.0401 35.9999 15.2635 36 15.4907V24.5093C35.9999 24.7365 35.9417 24.9599 35.831 25.1583C35.7203 25.3567 35.5608 25.5235 35.3675 25.6429C35.1742 25.7623 34.9536 25.8304 34.7267 25.8406C34.4997 25.8508 34.2739 25.8029 34.0707 25.7013L28 22.6667V17.3333ZM12 14.6667C12 13.9594 12.281 13.2811 12.781 12.781C13.2811 12.281 13.9594 12 14.6667 12H25.3333C26.0406 12 26.7189 12.281 27.219 12.781C27.719 13.2811 28 13.9594 28 14.6667V25.3333C28 26.0406 27.719 26.7189 27.219 27.219C26.7189 27.719 26.0406 28 25.3333 28H14.6667C13.9594 28 13.2811 27.719 12.781 27.219C12.281 26.7189 12 26.0406 12 25.3333V14.6667Z" stroke="white" stroke-width="2" stroke-linecap="round" stroke-linejoin="round"/>
</svg>
