<svg width="48" height="43" viewBox="0 0 48 43" fill="none" xmlns="http://www.w3.org/2000/svg">
<rect width="47.125" height="42.2857" rx="8" fill="#6F6FC8"/>
<path d="M33.3906 12H13.7344C12.7765 12 12 12.7675 12 13.7143V28.5714C12 29.5182 12.7765 30.2857 13.7344 30.2857H33.3906C34.3485 30.2857 35.125 29.5182 35.125 28.5714V13.7143C35.125 12.7675 34.3485 12 33.3906 12Z" stroke="white" stroke-width="2" stroke-linejoin="round"/>
<path d="M12 13.7143C12 13.2596 12.1827 12.8236 12.508 12.5021C12.8332 12.1806 13.2744 12 13.7344 12H33.3906C33.8506 12 34.2918 12.1806 34.617 12.5021C34.9423 12.8236 35.125 13.2596 35.125 13.7143V18.8571H12V13.7143Z" stroke="white" stroke-width="2"/>
<path d="M14.3125 15.4286C14.3125 14.7974 14.8302 14.2857 15.4687 14.2857C16.1073 14.2857 16.625 14.7974 16.625 15.4286C16.625 16.0598 16.1073 16.5714 15.4687 16.5714C14.8302 16.5714 14.3125 16.0598 14.3125 15.4286Z" fill="white"/>
<path d="M17.7812 15.4286C17.7812 14.7974 18.2989 14.2857 18.9375 14.2857C19.5761 14.2857 20.0938 14.7974 20.0938 15.4286C20.0938 16.0598 19.5761 16.5714 18.9375 16.5714C18.2989 16.5714 17.7812 16.0598 17.7812 15.4286Z" fill="white"/>
</svg>
