<svg width="68" height="22" viewBox="0 0 68 22" fill="none" xmlns="http://www.w3.org/2000/svg">
<path d="M0.98 21V-1.43051e-06H10.1C11.42 -1.43051e-06 12.57 0.229999 13.55 0.689999C14.53 1.15 15.29 1.8 15.83 2.64C16.37 3.48 16.64 4.47 16.64 5.61V5.97C16.64 7.23 16.34 8.25 15.74 9.03C15.14 9.81 14.4 10.38 13.52 10.74V11.28C14.32 11.32 14.94 11.6 15.38 12.12C15.82 12.62 16.04 13.29 16.04 14.13V21H12.08V14.7C12.08 14.22 11.95 13.83 11.69 13.53C11.45 13.23 11.04 13.08 10.46 13.08H4.94V21H0.98ZM4.94 9.48H9.68C10.62 9.48 11.35 9.23 11.87 8.73C12.41 8.21 12.68 7.53 12.68 6.69V6.39C12.68 5.55 12.42 4.88 11.9 4.38C11.38 3.86 10.64 3.6 9.68 3.6H4.94V9.48ZM26.8351 21.42C25.3551 21.42 24.0451 21.11 22.9051 20.49C21.7851 19.85 20.9051 18.96 20.2651 17.82C19.6451 16.66 19.3351 15.3 19.3351 13.74V13.38C19.3351 11.82 19.6451 10.47 20.2651 9.33C20.8851 8.17 21.7551 7.28 22.8751 6.66C23.9951 6.02 25.2951 5.7 26.7751 5.7C28.2351 5.7 29.5051 6.03 30.5851 6.69C31.6651 7.33 32.5051 8.23 33.1051 9.39C33.7051 10.53 34.0051 11.86 34.0051 13.38V14.67H23.1751C23.2151 15.69 23.5951 16.52 24.3151 17.16C25.0351 17.8 25.9151 18.12 26.9551 18.12C28.0151 18.12 28.7951 17.89 29.2951 17.43C29.7951 16.97 30.1751 16.46 30.4351 15.9L33.5251 17.52C33.2451 18.04 32.8351 18.61 32.2951 19.23C31.7751 19.83 31.0751 20.35 30.1951 20.79C29.3151 21.21 28.1951 21.42 26.8351 21.42ZM23.2051 11.85H30.1651C30.0851 10.99 29.7351 10.3 29.1151 9.78C28.5151 9.26 27.7251 9 26.7451 9C25.7251 9 24.9151 9.26 24.3151 9.78C23.7151 10.3 23.3451 10.99 23.2051 11.85ZM36.5659 21V16.5L44.7259 9.72V9.24H36.8659V6.12H48.8659V10.62L40.7059 17.4V17.88H49.1059V21H36.5659ZM57.2532 21.42C56.1932 21.42 55.2432 21.24 54.4032 20.88C53.5632 20.5 52.8932 19.96 52.3932 19.26C51.9132 18.54 51.6732 17.67 51.6732 16.65C51.6732 15.63 51.9132 14.78 52.3932 14.1C52.8932 13.4 53.5732 12.88 54.4332 12.54C55.3132 12.18 56.3132 12 57.4332 12H61.5132V11.16C61.5132 10.46 61.2932 9.89 60.8532 9.45C60.4132 8.99 59.7132 8.76 58.7532 8.76C57.8132 8.76 57.1132 8.98 56.6532 9.42C56.1932 9.84 55.8932 10.39 55.7532 11.07L52.2732 9.9C52.5132 9.14 52.8932 8.45 53.4132 7.83C53.9532 7.19 54.6632 6.68 55.5432 6.3C56.4432 5.9 57.5332 5.7 58.8132 5.7C60.7732 5.7 62.3232 6.19 63.4632 7.17C64.6032 8.15 65.1732 9.57 65.1732 11.43V16.98C65.1732 17.58 65.4532 17.88 66.0132 17.88H67.2132V21H64.6932C63.9532 21 63.3432 20.82 62.8632 20.46C62.3832 20.1 62.1432 19.62 62.1432 19.02V18.99H61.5732C61.4932 19.23 61.3132 19.55 61.0332 19.95C60.7532 20.33 60.3132 20.67 59.7132 20.97C59.1132 21.27 58.2932 21.42 57.2532 21.42ZM57.9132 18.36C58.9732 18.36 59.8332 18.07 60.4932 17.49C61.1732 16.89 61.5132 16.1 61.5132 15.12V14.82H57.7032C57.0032 14.82 56.4532 14.97 56.0532 15.27C55.6532 15.57 55.4532 15.99 55.4532 16.53C55.4532 17.07 55.6632 17.51 56.0832 17.85C56.5032 18.19 57.1132 18.36 57.9132 18.36Z" fill="#6F6FC8"/>
</svg>
