<svg width="146" height="48" viewBox="0 0 146 48" fill="none" xmlns="http://www.w3.org/2000/svg">
<rect x="0.5" y="0.5" width="47" height="47" rx="23.5" stroke="white"/>
<path d="M15 15H33C33.2652 15 33.5196 15.1054 33.7071 15.2929C33.8946 15.4804 34 15.7348 34 16V32C34 32.2652 33.8946 32.5196 33.7071 32.7071C33.5196 32.8946 33.2652 33 33 33H15C14.7348 33 14.4804 32.8946 14.2929 32.7071C14.1054 32.5196 14 32.2652 14 32V16C14 15.7348 14.1054 15.4804 14.2929 15.2929C14.4804 15.1054 14.7348 15 15 15ZM24.06 23.683L17.648 18.238L16.353 19.762L24.073 26.317L31.654 19.757L30.346 18.244L24.06 23.683Z" fill="white"/>
<path d="M57.46 31V17H59.62V29.04H66.36V31H57.46ZM72.8798 31.28C71.8798 31.28 71.0065 31.0733 70.2598 30.66C69.5132 30.2333 68.9265 29.64 68.4998 28.88C68.0865 28.1067 67.8798 27.2133 67.8798 26.2V25.96C67.8798 24.9333 68.0865 24.04 68.4998 23.28C68.9132 22.5067 69.4865 21.9133 70.2198 21.5C70.9665 21.0733 71.8265 20.86 72.7998 20.86C73.7465 20.86 74.5732 21.0733 75.2798 21.5C75.9998 21.9133 76.5598 22.4933 76.9598 23.24C77.3598 23.9867 77.5598 24.86 77.5598 25.86V26.64H69.9798C70.0065 27.5067 70.2932 28.2 70.8398 28.72C71.3998 29.2267 72.0932 29.48 72.9198 29.48C73.6932 29.48 74.2732 29.3067 74.6598 28.96C75.0598 28.6133 75.3665 28.2133 75.5798 27.76L77.2798 28.64C77.0932 29.0133 76.8198 29.4067 76.4598 29.82C76.1132 30.2333 75.6532 30.58 75.0798 30.86C74.5065 31.14 73.7732 31.28 72.8798 31.28ZM69.9998 25.06H75.4598C75.4065 24.3133 75.1398 23.7333 74.6598 23.32C74.1798 22.8933 73.5532 22.68 72.7798 22.68C72.0065 22.68 71.3732 22.8933 70.8798 23.32C70.3998 23.7333 70.1065 24.3133 69.9998 25.06ZM83.3684 31C82.7684 31 82.2884 30.82 81.9284 30.46C81.5818 30.1 81.4084 29.62 81.4084 29.02V22.88H78.6884V21.14H81.4084V17.88H83.4684V21.14H86.4084V22.88H83.4684V28.66C83.4684 29.06 83.6551 29.26 84.0284 29.26H86.0884V31H83.3684ZM88.9853 22.4V21.22H89.6653C90.212 21.22 90.4853 20.9467 90.4853 20.4V19.76H90.1853C89.7186 19.76 89.332 19.62 89.0253 19.34C88.7186 19.06 88.5653 18.7067 88.5653 18.28C88.5653 17.8133 88.7186 17.44 89.0253 17.16C89.332 16.8667 89.7186 16.72 90.1853 16.72C90.652 16.72 91.032 16.8733 91.3253 17.18C91.632 17.4733 91.7853 17.86 91.7853 18.34V20.42C91.7853 21.74 91.1253 22.4 89.8053 22.4H88.9853ZM98.3373 31.28C97.084 31.28 96.044 31 95.2173 30.44C94.3907 29.88 93.884 29.0333 93.6973 27.9L95.6173 27.44C95.724 27.9867 95.904 28.42 96.1573 28.74C96.4107 29.06 96.724 29.2867 97.0973 29.42C97.484 29.5533 97.8973 29.62 98.3373 29.62C98.9907 29.62 99.4907 29.4933 99.8373 29.24C100.197 28.9867 100.377 28.66 100.377 28.26C100.377 27.86 100.211 27.5667 99.8773 27.38C99.544 27.1933 99.0507 27.04 98.3973 26.92L97.7173 26.8C97.0507 26.68 96.444 26.5067 95.8973 26.28C95.3507 26.0533 94.9173 25.74 94.5973 25.34C94.2773 24.94 94.1173 24.4267 94.1173 23.8C94.1173 22.8667 94.464 22.1467 95.1573 21.64C95.8507 21.12 96.7707 20.86 97.9173 20.86C99.024 20.86 99.9307 21.1133 100.637 21.62C101.357 22.1133 101.824 22.7867 102.037 23.64L100.117 24.18C99.9973 23.58 99.744 23.16 99.3573 22.92C98.9707 22.6667 98.4907 22.54 97.9173 22.54C97.3573 22.54 96.9173 22.6467 96.5973 22.86C96.2773 23.06 96.1173 23.3467 96.1173 23.72C96.1173 24.12 96.2707 24.4133 96.5773 24.6C96.8973 24.7867 97.324 24.9267 97.8573 25.02L98.5573 25.14C99.264 25.26 99.9107 25.4267 100.497 25.64C101.084 25.8533 101.544 26.16 101.877 26.56C102.224 26.96 102.397 27.4933 102.397 28.16C102.397 29.1467 102.031 29.9133 101.297 30.46C100.564 31.0067 99.5773 31.28 98.3373 31.28ZM112.616 31V18.96H108.316V17H119.076V18.96H114.776V31H112.616ZM122.416 31.28C121.709 31.28 121.076 31.16 120.516 30.92C119.969 30.68 119.529 30.3267 119.196 29.86C118.876 29.3933 118.716 28.8267 118.716 28.16C118.716 27.48 118.876 26.92 119.196 26.48C119.529 26.0267 119.976 25.6867 120.536 25.46C121.109 25.2333 121.756 25.12 122.476 25.12H125.476V24.48C125.476 23.9067 125.303 23.4467 124.956 23.1C124.609 22.7533 124.076 22.58 123.356 22.58C122.649 22.58 122.109 22.7467 121.736 23.08C121.363 23.4133 121.116 23.8467 120.996 24.38L119.076 23.76C119.236 23.2267 119.489 22.7467 119.836 22.32C120.196 21.88 120.669 21.5267 121.256 21.26C121.843 20.9933 122.549 20.86 123.376 20.86C124.656 20.86 125.663 21.1867 126.396 21.84C127.129 22.4933 127.496 23.42 127.496 24.62V28.68C127.496 29.08 127.683 29.28 128.056 29.28H128.896V31H127.356C126.889 31 126.509 30.88 126.216 30.64C125.923 30.4 125.776 30.0733 125.776 29.66V29.6H125.476C125.369 29.8 125.209 30.0333 124.996 30.3C124.783 30.5667 124.469 30.8 124.056 31C123.643 31.1867 123.096 31.28 122.416 31.28ZM122.716 29.58C123.543 29.58 124.209 29.3467 124.716 28.88C125.223 28.4 125.476 27.7467 125.476 26.92V26.72H122.596C122.049 26.72 121.609 26.84 121.276 27.08C120.943 27.3067 120.776 27.6467 120.776 28.1C120.776 28.5533 120.949 28.9133 121.296 29.18C121.643 29.4467 122.116 29.58 122.716 29.58ZM130.899 31V17H132.959V31H130.899ZM136.016 31V17H138.076V24.98H138.396L142.276 21.14H145.016L140.036 25.92L145.176 31H142.456L138.396 26.9H138.076V31H136.016Z" fill="white"/>
<a href="mailto:hello.rezaluthfi@gmail.com">
<rect fill="black" fill-opacity="0" y="-0.76" width="89.5161" height="25.52"/>
</a>
</svg>
